<?xml version="1.0" encoding="UTF-8"?>
<svg id="Layer_1" data-name="Layer 1" xmlns="http://www.w3.org/2000/svg" viewBox="0 0 4409.74 707.67">
  <defs>
    <style>
      .cls-1, .cls-2 {
        fill: #f78d1e;
      }

      .cls-1, .cls-2, .cls-3 {
        stroke-width: 0px;
      }

      .cls-1, .cls-3 {
        fill-rule: evenodd;
      }

      .cls-3 {
        fill: #fff;
      }
    </style>
  </defs>
  <path class="cls-2" d="M1722.9,638.41l-316.38-328.43v328.43h-112.42V75.5h35.33l310.76,314.78V75.5h112.42v562.9h-29.71Z"/>
  <path class="cls-2" d="M2569.26,75.5h-375v562.9h372.59v-112.42h-260.17v-122.06h216.81v-112.42h-216.81v-103.59h262.58v-112.42Z"/>
  <path class="cls-2" d="M3349.78,75.5l-114.83,211.99-115.63-211.99h-124.47l183.89,356.53v206.37h112.42v-206.37l183.08-356.53h-124.47Z"/>
  <path class="cls-2" d="M4409.74,75.5h-138.12l-130.89,184.69-130.89-184.69h-138.12l199.95,281.85-199.95,281.05h138.12l130.89-183.89,130.89,183.89h138.12l-199.95-281.05,199.95-281.85Z"/>
  <path class="cls-1" d="M530.5,495.29l142-141.62-142-141.62v-45.88l188,187.5-188,187.5v-45.88ZM531,452.9v-.24h-237.5v-5h237.5v-92.5h-212.5v-3h212.5v-92.5h-237.5v-5h237.5v-.24l99.5,99.24-99.5,99.24Z"/>
  <path class="cls-1" d="M497.17,0c195.42,0,353.83,158.42,353.83,353.83s-158.42,353.83-353.83,353.83-353.83-158.42-353.83-353.83S301.75,0,497.17,0Z"/>
  <path class="cls-1" d="M530.5,495.29l142-141.62-142-141.62v-45.88l188,187.5-188,187.5v-45.88ZM531,452.9v-.24h-237.5v-5h237.5v-92.5h-212.5v-3h212.5v-92.5h-237.5v-5h237.5v-.24l99.5,99.24-99.5,99.24Z"/>
  <path class="cls-3" d="M530.5,495.29l142-141.62-142-141.62v-45.88l188,187.5-188,187.5v-45.88ZM531,452.9v-.24h-237.5v-5h237.5v-92.5h-212.5v-3h212.5v-92.5h-237.5v-5h237.5v-.24l99.5,99.24-99.5,99.24Z"/>
</svg>